# xmcd
#
# Track frame offsets:
#	150
#	16589
#	29426
#	45526
#	60388
#	73844
#	90912
#	106288
#	127235
#	139192
#
# Disc length: 2053 seconds
#
# Revision: 2
# Processed by: cddbd v1.5.2PL0 Copyright (c) Steve Scherf et al.
# Submitted via: EasyCDDAExtractor 15.3.0.1
#
DISCID=8008030a
DTITLE=Lucero - Cuando Sale Un Lucero
DYEAR=2004
DGENRE=Latin
TTITLE0=Vete Por Donde Llegaste
TTITLE1=Amaneci En Tus Brazos
TTITLE2=Pepe
TTITLE3=Entre La Espada Y La Pared
TTITLE4=No Llores
TTITLE5=Cielo Rojo
TTITLE6=El Cable
TTITLE7=Se
TTITLE8=Libro Abierto
TTITLE9=Cuando Sale La Luna
EXTD=
EXTT0=
EXTT1=
EXTT2=
EXTT3=
EXTT4=
EXTT5=
EXTT6=
EXTT7=
EXTT8=
EXTT9=
PLAYORDER=
